# File created by Blade
# Date/Time:  Wed Jan 28 16:58:26 2015
#---------------------------------------------------------
:version 1.10
:name HOM
:units
  mass 1.0
  length 1.000000
  angle deg
:documentation
     Acclaim Skeleton File
:root
   axis xyz
   order TX TY TZ RX RY RZ
   position 0.000000 0.000000 0.000000
   orientation 0 0 0
:bonedata
   begin
      id 1
      name Spine_dum
      direction 0.000000 1.000000 0.000000
      length 9.621153
      axis 0.0 0.0 0.0 xyz
   end
   begin
      id 2
      name LeftUpLeg_dum
      direction 1.000000 0.000000 0.000000
      length 2.700595
      axis 0.0 0.0 0.0 xyz
   end
   begin
      id 3
      name RightUpLeg_dum
      direction -1.000000 0.000000 0.000000
      length 2.700595
      axis 0.0 0.0 0.0 xyz
   end
   begin
      id 4
      name Spine
      direction 0.000000 1.000000 0.000000
      length 0.000000
      axis 0.0 0.0 0.0 xyz
      dof rx ry rz
   end
   begin
      id 5
      name Spine_dum1
      direction 0.000000 1.000000 0.000000
      length 12.771951
      axis 0.0 0.0 0.0 xyz
   end
   begin
      id 6
      name Spine_dum2
      direction 0.000000 1.000000 0.000000
      length 7.400569
      axis 0.0 0.0 0.0 xyz
   end
   begin
      id 7
      name Spine_dum3
      direction 0.000000 1.000000 0.000000
      length 7.400569
      axis 0.0 0.0 0.0 xyz
   end
   begin
      id 8
      name Head
      direction 0.000000 1.000000 0.000000
      length 4.527550
      axis 0.0 0.0 0.0 xyz
      dof rx ry rz
   end
   begin
      id 9
      name LeftShoulder
      direction 1.000000 0.000000 0.000000
      length 8.349299
      axis 0.0 0.0 -90.0 xyz
      dof rx ry rz
   end
   begin
      id 10
      name LeftArm
      direction 1.000000 0.000000 0.000000
      length 11.334839
      axis 0.0 0.0 -90.0 xyz
      dof rx ry rz
   end
   begin
      id 11
      name LeftForeArm
      direction 1.000000 0.000000 0.000000
      length 9.694182
      axis 0.0 0.0 -90.0 xyz
      dof ry rz rx
   end
   begin
      id 12
      name LeftHand
      direction 0.000000 0.000000 0.000000
      length 0.000000
      axis 0.0 0.0 -90.0 xyz
      dof rx ry rz
   end
   begin
      id 13
      name LeftHand_dum1
      direction 0.000000 0.000000 0.000000
      length 0.000000
      axis 0.0 0.0 -90.0 xyz
   end
   begin
      id 14
      name LeftHand_dum2
      direction 1.000000 0.000000 0.000000
      length 3.937000
      axis 0.0 0.0 -90.0 xyz
   end
   begin
      id 15
      name LeftHandThumb1
      direction 0.000000 0.000000 1.000000
      length 3.937000
      axis 0.0 0.0 -90.0 xyz
      dof rx rz ry
   end
   begin
      id 16
      name RightShoulder
      direction -1.000000 0.000000 0.000000
      length 8.349299
      axis 0.0 0.0 90.0 xyz
      dof rx ry rz
   end
   begin
      id 17
      name RightArm
      direction -1.000000 0.000000 0.000000
      length 11.334839
      axis 0.0 0.0 90.0 xyz
      dof rx ry rz
   end
   begin
      id 18
      name RightForeArm
      direction -1.000000 0.000000 0.000000
      length 9.694182
      axis 0.0 0.0 90.0 xyz
      dof ry rz rx
   end
   begin
      id 19
      name RightHand
      direction 0.000000 0.000000 0.000000
      length 0.000000
      axis 0.0 0.0 90.0 xyz
      dof rx ry rz
   end
   begin
      id 20
      name RightHand_dum1
      direction 0.000000 0.000000 0.000000
      length 0.000000
      axis 0.0 0.0 90.0 xyz
   end
   begin
      id 21
      name RightHand_dum2
      direction -1.000000 0.000000 0.000000
      length 3.937000
      axis 0.0 0.0 90.0 xyz
   end
   begin
      id 22
      name RightHandThumb1
      direction 0.000000 0.000000 1.000000
      length 3.937000
      axis 0.0 0.0 90.0 xyz
      dof rx rz ry
   end
   begin
      id 23
      name LeftUpLeg
      direction 0.000000 -1.000000 0.000000
      length 16.757176
      axis 0.0 0.0 0.0 xyz
      dof rx ry rz
   end
   begin
      id 24
      name LeftLeg
      direction 0.000000 -1.000000 0.000000
      length 16.759153
      axis 0.0 0.0 0.0 xyz
      dof rx ry rz
   end
   begin
      id 25
      name LeftFoot
      direction 0.000000 -0.258819 0.965926
      length 5.841289
      axis 15.0 0.0 0.0 xyz
      dof rx ry rz
   end
   begin
      id 26
      name LeftToeBase
      direction 0.000000 0.000000 1.000000
      length 2.952750
      axis 0.0 0.0 0.0 xyz
      dof rx ry rz
   end
   begin
      id 27
      name RightUpLeg
      direction 0.000000 -1.000000 0.000000
      length 16.757176
      axis 0.0 0.0 0.0 xyz
      dof rx ry rz
   end
   begin
      id 28
      name RightLeg
      direction 0.000000 -1.000000 0.000000
      length 16.759153
      axis 0.0 0.0 0.0 xyz
      dof rx ry rz
   end
   begin
      id 29
      name RightFoot
      direction 0.000000 -0.258819 0.965926
      length 5.841289
      axis 15.0 0.0 0.0 xyz
      dof rx ry rz
   end
   begin
      id 30
      name RightToeBase
      direction 0.000000 0.000000 1.000000
      length 2.952750
      axis 0.0 0.0 0.0 xyz
      dof rx ry rz
   end
:hierarchy
   begin
      root Spine_dum LeftUpLeg_dum RightUpLeg_dum
      Spine_dum Spine
      LeftUpLeg_dum LeftUpLeg
      RightUpLeg_dum RightUpLeg
      Spine Spine_dum1 Spine_dum2 Spine_dum3
      Spine_dum1 Head
      Spine_dum2 LeftShoulder
      Spine_dum3 RightShoulder
      LeftShoulder LeftArm
      LeftArm LeftForeArm
      LeftForeArm LeftHand
      LeftHand LeftHand_dum1 LeftHand_dum2
      LeftHand_dum1 LeftHandThumb1
      RightShoulder RightArm
      RightArm RightForeArm
      RightForeArm RightHand
      RightHand RightHand_dum1 RightHand_dum2
      RightHand_dum1 RightHandThumb1
      LeftUpLeg LeftLeg
      LeftLeg LeftFoot
      LeftFoot LeftToeBase
      RightUpLeg RightLeg
      RightLeg RightFoot
      RightFoot RightToeBase
   end

# File created by Blade
# Date/Time:  Wed Jan 28 16:58:32 2015
# Frame Rate: 120.000 fps
#------------------------------------------------------
:FULLY-SPECIFIED
:DEGREES
1342
root 10.540319 36.310723 -17.003301 175.490178 12.101335 -166.121003
Spine 33.616700 -3.693127 10.631679
Head 40.783866 8.840257 30.673925
LeftShoulder -7.475737 5.838185 20.610028
LeftArm 29.068429 -33.779677 -78.783695
LeftForeArm -10.709549 0.000000 100.316438
LeftHand -6.269224 0.000000 28.460446
LeftHandThumb1 -26.253704 0.000000 33.147579
RightShoulder -20.956000 -10.374483 -3.543431
RightArm 13.196295 -30.889479 71.954550
RightForeArm -6.113860 0.000000 35.469401
RightHand -16.912941 -0.000000 1.298128
RightHandThumb1 -24.326973 -0.000000 -32.862282
LeftUpLeg 3.334766 22.162330 9.155760
LeftLeg 6.897682 -0.000000 -0.000000
LeftFoot -12.463325 12.694434 -7.711175
LeftToeBase 15.542402 -0.000000 -0.000000
RightUpLeg -84.537481 -3.205517 14.587657
RightLeg 133.189241 -0.000000 -0.000000
RightFoot 7.920460 -4.358936 6.872530
RightToeBase -11.962699 -0.000000 0.000000
1343
root 10.538240 36.302362 -17.028467 175.448963 12.267975 -166.160275
Spine 33.475073 -3.464680 10.465119
Head 41.084263 8.967055 30.732044
LeftShoulder -7.519735 5.848643 20.590308
LeftArm 29.069589 -33.765288 -78.819799
LeftForeArm -10.526156 -0.000000 100.462128
LeftHand -6.324563 -0.000000 28.495931
LeftHandThumb1 -26.253704 0.000000 33.147579
RightShoulder -21.018776 -10.327077 -3.456870
RightArm 13.237638 -30.920844 71.936395
RightForeArm -6.256205 -0.000000 35.427257
RightHand -16.873416 0.000000 1.619640
RightHandThumb1 -24.326973 -0.000000 -32.862282
LeftUpLeg 3.398285 21.949720 9.133760
LeftLeg 7.018572 -0.000000 -0.000000
LeftFoot -12.859270 12.843690 -8.120814
LeftToeBase 16.004766 -0.000000 -0.000000
RightUpLeg -83.456869 -3.048957 14.441744
RightLeg 132.686069 -0.000000 -0.000000
RightFoot 6.999825 -5.228320 6.622237
RightToeBase -11.169974 -0.000000 0.000000
1344
root 10.537267 36.294985 -17.059030 175.387770 12.458631 -166.234207
Spine 33.354954 -3.257493 10.202502
Head 41.382158 9.173573 30.842089
LeftShoulder -7.625502 5.881709 20.561944
LeftArm 29.017444 -33.793533 -78.808525
LeftForeArm -10.353558 -0.000000 100.641484
LeftHand -6.367176 -0.000000 28.303890
LeftHandThumb1 -26.253704 0.000000 33.147579
RightShoulder -21.047426 -10.284136 -3.315798
RightArm 13.272374 -30.865909 71.922093
RightForeArm -6.338395 -0.000000 35.421727
RightHand -16.840838 0.000000 1.785113
RightHandThumb1 -24.326973 -0.000000 -32.862282
LeftUpLeg 3.522928 21.765220 9.086490
LeftLeg 7.073679 -0.000000 -0.000000
LeftFoot -13.200505 12.997276 -8.551897
LeftToeBase 16.348435 -0.000000 -0.000000
RightUpLeg -82.241991 -2.884954 14.260243
RightLeg 132.159846 -0.000000 -0.000000
RightFoot 6.249481 -6.317270 6.559519
RightToeBase -10.073676 -0.000000 0.000000
1345
root 10.537793 36.281168 -17.082442 175.371554 12.605630 -166.291910
Spine 33.155293 -3.084469 9.978043
Head 41.664668 9.411347 31.002815
LeftShoulder -7.699269 5.945985 20.502516
LeftArm 29.022838 -33.848488 -78.819364
LeftForeArm -10.145944 0.000000 100.821703
LeftHand -6.479471 -0.000000 28.195622
LeftHandThumb1 -26.253704 0.000000 33.147579
RightShoulder -21.087866 -10.302175 -3.215979
RightArm 13.310915 -30.806738 71.973305
RightForeArm -6.354765 -0.000000 35.459372
RightHand -16.884343 -0.000000 1.558028
RightHandThumb1 -24.326973 -0.000000 -32.862282
LeftUpLeg 3.385198 22.182170 9.132718
LeftLeg 7.578728 -0.000000 -0.000000
LeftFoot -13.674141 12.459753 -8.856054
LeftToeBase 16.757926 -0.000000 -0.000000
RightUpLeg -81.019644 -2.755774 14.102234
RightLeg 131.607000 -0.000000 -0.000000
RightFoot 5.666032 -7.546686 6.478087
RightToeBase -9.102064 -0.000000 0.000000
1346
root 10.539518 36.269533 -17.114144 175.279097 12.785095 -166.414401
Spine 33.052039 -2.843075 9.598330
Head 41.805920 9.526080 31.094335
LeftShoulder -7.771221 5.996156 20.538703
LeftArm 29.047318 -33.933856 -78.880631
LeftForeArm -10.201244 0.000000 101.073101
LeftHand -6.594006 -0.000000 28.077287
LeftHandThumb1 -26.253704 0.000000 33.147579
RightShoulder -21.147983 -10.273889 -3.008301
RightArm 13.356379 -30.736884 72.004861
RightForeArm -6.301153 -0.000000 35.455626
RightHand -16.821054 -0.000000 1.465015
RightHandThumb1 -24.326973 -0.000000 -32.862282
LeftUpLeg 3.536546 22.282830 9.099927
LeftLeg 7.654073 -0.000000 -0.000000
LeftFoot -13.982669 12.335536 -9.149680
LeftToeBase 17.101701 -0.000000 -0.000000
RightUpLeg -79.618729 -2.618149 13.864780
RightLeg 131.027748 -0.000000 -0.000000
RightFoot 5.082991 -8.733486 6.469312
RightToeBase -8.018261 -0.000000 0.000000
1347
root 10.538116 36.258030 -17.149840 175.140178 12.917712 -166.569877
Spine 32.993306 -2.676818 9.179345
Head 41.988048 9.835800 31.364421
LeftShoulder -7.843594 6.089394 20.525141
LeftArm 29.116572 -34.073545 -78.903308
LeftForeArm -10.203366 0.000000 101.291860
LeftHand -6.634423 0.000000 27.896207
LeftHandThumb1 -26.253704 0.000000 33.147579
RightShoulder -21.168021 -10.212451 -2.833674
RightArm 13.336633 -30.583267 72.130323
RightForeArm -6.379324 -0.000000 35.484592
RightHand -16.870502 -0.000000 1.496082
RightHandThumb1 -24.326973 -0.000000 -32.862282
LeftUpLeg 3.741091 22.380096 9.041345
LeftLeg 7.694457 -0.000000 -0.000000
LeftFoot -14.398036 12.156982 -9.687833
LeftToeBase 17.648208 -0.000000 -0.000000
RightUpLeg -78.061104 -2.546482 13.567057
RightLeg 130.402284 -0.000000 -0.000000
RightFoot 4.546318 -9.793099 6.267687
RightToeBase -7.241489 -0.000000 0.000000
